<?xml version="1.0" standalone="no"?>
<!DOCTYPE svg PUBLIC "-//W3C//DTD SVG 20010904//EN"
 "http://www.w3.org/TR/2001/REC-SVG-20010904/DTD/svg10.dtd">
<svg version="1.0" xmlns="http://www.w3.org/2000/svg"
 width="280.000000pt" height="280.000000pt" viewBox="0 0 280.000000 280.000000"
 preserveAspectRatio="xMidYMid meet">
<metadata>
Created by potrace 1.14, written by Peter Selinger 2001-2017
</metadata>
<g transform="translate(0.000000,280.000000) scale(0.100000,-0.100000)"
fill="#000000" stroke="none">
<path d="M1286 2792 c-3 -6 -15 -8 -26 -5 -31 8 -83 -52 -86 -100 -2 -28 2
-40 14 -45 10 -3 23 -12 30 -19 7 -7 20 -13 28 -13 11 0 12 -10 7 -47 -3 -27
-7 -50 -9 -52 -2 -2 5 -19 16 -36 11 -18 22 -51 24 -74 4 -41 4 -41 -30 -41
-41 0 -121 -26 -152 -50 -47 -38 -146 -202 -180 -300 -9 -24 -17 -30 -41 -30
-20 0 -31 -6 -35 -17 -9 -29 -26 -110 -32 -151 -3 -20 -14 -81 -26 -136 -33
-160 -13 -222 88 -270 29 -14 84 -30 121 -37 37 -6 69 -13 71 -14 6 -5 -30
-152 -47 -191 -11 -23 -30 -49 -43 -58 -13 -9 -143 -60 -288 -115 -342 -128
-321 -118 -315 -153 4 -22 1 -28 -12 -29 -18 -2 -79 -5 -138 -8 -16 -1 -49 2
-72 7 -56 12 -64 6 -77 -68 -2 -14 -12 -54 -21 -90 -9 -36 -19 -76 -21 -89 -3
-12 -11 -51 -19 -86 -8 -35 -12 -70 -9 -79 6 -14 50 -23 79 -16 6 2 18 2 27 2
9 0 26 9 38 21 74 79 100 110 100 117 0 16 87 99 115 110 41 15 55 12 65 -15
8 -22 20 -29 42 -26 28 3 73 13 78 16 3 2 17 6 31 8 47 9 446 110 599 152 194
53 242 75 282 134 l16 23 32 -43 c34 -46 63 -102 195 -369 45 -91 86 -173 91
-183 12 -20 40 -24 89 -13 28 7 32 5 48 -30 18 -36 40 -123 39 -154 0 -8 -2
-30 -5 -48 -7 -41 8 -49 92 -51 35 -1 66 -3 70 -5 8 -5 212 -19 300 -20 76 -1
90 12 75 70 -7 32 -15 41 -49 53 -22 8 -42 18 -45 22 -3 3 -32 15 -65 27 -33
11 -85 34 -115 50 -48 26 -58 37 -79 87 -20 45 -22 58 -12 65 20 12 9 55 -74
300 -107 316 -160 453 -206 539 -23 42 -59 109 -81 150 -21 40 -50 91 -63 112
-20 31 -23 43 -15 64 5 14 16 25 25 25 12 0 14 11 10 58 -3 31 -7 81 -9 109
l-3 53 61 -5 c69 -5 123 9 210 56 55 30 65 42 46 54 -21 13 -8 34 45 69 30 20
63 43 73 51 9 8 60 46 112 84 157 115 155 113 140 142 -18 32 -41 49 -62 43
-10 -3 -18 2 -20 13 -3 15 -11 11 -42 -22 -21 -22 -42 -50 -47 -62 -9 -25 -54
-49 -203 -113 -61 -25 -102 -38 -108 -32 -6 6 -26 3 -53 -7 l-44 -15 -63 54
c-35 30 -72 63 -83 74 -11 10 -45 37 -75 59 -30 23 -61 47 -68 53 -6 7 -21 16
-33 19 -16 5 -20 13 -17 43 3 30 9 37 38 47 19 6 42 22 52 36 23 30 42 182 27
210 -13 26 -60 48 -114 56 -28 3 -45 11 -45 19 0 8 -9 19 -20 26 -11 7 -20 18
-20 24 0 7 -15 14 -32 17 -18 3 -45 9 -59 12 -15 4 -29 2 -33 -3z"/>
</g>
</svg>
